<svg class="logo--regular" xmlns="http://www.w3.org/2000/svg" xmlns:xlink="http://www.w3.org/1999/xlink" style="isolation:isolate" viewBox="0 0 373.6 85.7" width="373.6" height="85.7"><defs><clipPath id="_clipPath_6YciNJsMoBbvdUWfatVLeNYjccJ0nZf8"><rect width="373.6" height="85.7"/></clipPath></defs><g clip-path="url(#_clipPath_6YciNJsMoBbvdUWfatVLeNYjccJ0nZf8)"><g id="Group"><path d=" M 24.1 76.7 L 24 76.7 C 20 75.8 18.7 75.4 18.7 73.7 C 18.7 71.9 20.3 71.3 21.7 71.3 C 22.7 71.3 24.7 71.3 25.4 73.3 L 28 73.7 C 27.6 69.8 23.3 69.5 21.9 69.5 C 19.2 69.5 16.2 70.9 16.3 74 C 16.3 77.1 19.3 77.8 21.9 78.4 C 24.1 78.9 26.2 79.4 26.2 81.3 C 26.2 83.7 23.4 83.9 22.5 83.9 C 20.2 83.9 18.8 83.1 18.4 81.4 L 15.9 81 C 16.2 84.5 19.5 85.7 22.4 85.7 C 26.3 85.7 28.7 83.8 28.7 80.9 C 28.5 77.8 25.4 77.1 24.1 76.7 Z " fill="rgb(41,46,107)"/><rect x="31.7" y="69.501" width="2.6" height="15.5" transform="matrix(1,-0.004,0.004,1,-0.298,0.128)" fill="rgb(41,46,107)"/><path d=" M 52.3 81.3 C 52.8 80.6 53.1 78.6 53.1 77.5 C 51.8 77.5 50.4 77.5 49 77.5 C 47.8 77.5 46.7 77.5 45.7 77.5 L 45.7 79.5 C 46.1 79.5 46.6 79.5 47.1 79.5 L 47.9 79.5 C 48.4 79.5 48.8 79.5 49.1 79.5 L 50.3 79.5 L 50 80.2 C 49.3 81.9 47.3 83 45.2 83 C 42.1 83 39.7 80.6 39.7 77.5 C 39.7 74.5 42.2 72 45.2 72 C 47 72 48.7 72.8 49.7 74.3 C 50.4 73.9 50.8 73.8 51.2 73.5 L 52 73.1 C 50.5 70.9 47.9 69.5 45.3 69.5 C 40.9 69.5 37.3 73.1 37.3 77.5 C 37.3 81.9 40.9 85.5 45.4 85.5 C 48.2 85.6 50.9 84 52.3 81.3 L 52.3 81.3 Z " fill="rgb(41,46,107)"/><path d=" M 69.5 85 L 69.5 69.5 L 66.9 69.5 L 66.9 75.5 L 58.3 75.5 L 58.2 69.5 L 55.7 69.5 L 55.8 85.1 L 58.3 85.1 L 58.3 78 L 67 78 L 67 85 L 69.5 85 Z " fill="rgb(41,46,107)"/><path d=" M 85.2 69.5 L 72.1 69.6 L 72.1 71.6 L 77.4 71.6 L 77.4 85 L 80 85 L 80 71.6 L 85.2 71.6 L 85.2 69.5 Z " fill="rgb(41,46,107)"/><path d=" M 95.8 76.7 L 95.7 76.7 C 91.7 75.8 90.4 75.4 90.4 73.7 C 90.4 71.9 92 71.3 93.4 71.3 C 94.4 71.3 96.4 71.3 97.1 73.3 L 99.7 73.7 C 99.3 69.8 95 69.5 93.6 69.5 C 90.9 69.5 87.9 70.9 88 74 C 88 76.3 89.7 77.3 91.6 77.9 C 92.2 78.1 92.9 78.3 93.6 78.4 C 95.8 78.9 97.9 79.4 97.9 81.3 C 97.9 83.7 95.1 83.9 94.2 83.9 C 91.9 83.9 90.5 83.1 90.1 81.4 L 87.6 81 C 87.9 84.5 91.2 85.7 94.1 85.7 C 98 85.7 100.4 83.8 100.4 80.9 C 100.1 77.8 97.1 77.1 95.8 76.7 Z " fill="rgb(41,46,107)"/><path d=" M 112.9 78.5 L 112.9 76.3 L 105.4 76.3 L 105.4 71.6 L 113.9 71.6 L 113.9 69.5 L 102.9 69.6 L 102.9 85.1 L 114.7 85.1 L 114.7 83 L 105.4 83.1 L 105.4 78.5 L 112.9 78.5 Z " fill="rgb(41,46,107)"/><path d=" M 127.9 78.5 L 127.9 76.3 L 120.4 76.3 L 120.4 71.6 L 128.9 71.6 L 128.9 69.5 L 117.9 69.6 L 117.9 85.1 L 129.7 85.1 L 129.7 83 L 120.4 83.1 L 120.4 78.5 L 127.9 78.5 Z " fill="rgb(41,46,107)"/><rect x="133.301" y="69.501" width="2.6" height="15.5" transform="matrix(1,-0.004,0.004,1,-0.297,0.52)" fill="rgb(41,46,107)"/><path d=" M 153.4 85.1 L 153.4 69.5 L 151.3 69.5 L 151.4 81 L 143.2 69.6 L 139.8 69.6 L 139.8 85.1 L 142 85.1 L 141.9 72.6 L 151.1 85.1 L 153.4 85.1 Z " fill="rgb(41,46,107)"/><path d=" M 171 81.3 C 171.5 80.6 171.8 78.6 171.8 77.5 C 170.5 77.5 169.1 77.5 167.7 77.5 C 166.5 77.5 165.4 77.5 164.4 77.5 L 164.4 79.5 C 164.8 79.5 165.3 79.5 165.9 79.5 L 166.7 79.5 C 167.2 79.5 167.6 79.5 167.9 79.5 L 169.1 79.5 L 168.8 80.2 C 168.1 81.9 166.1 83 164 83 C 160.9 83 158.5 80.6 158.5 77.5 C 158.5 74.5 161 72 164 72 C 165.8 72 167.5 72.8 168.5 74.3 C 169.2 73.9 169.6 73.8 170 73.5 L 170.8 73.1 C 169.3 70.9 166.7 69.5 164.1 69.5 C 159.7 69.5 156.1 73.1 156.1 77.5 C 156.1 81.9 159.7 85.5 164.2 85.5 C 167 85.6 169.6 84 171 81.3 L 171 81.3 Z " fill="rgb(41,46,107)"/></g><g id="Group"><path d=" M 241.7 85.048 L 241.6 69.648 L 239.6 69.648 L 239.7 81.048 L 231.5 69.748 L 228.2 69.748 L 228.2 85.148 L 230.4 85.148 L 230.3 72.748 L 239.4 85.148 L 241.7 85.048 Z " fill="rgb(41,46,107)"/><path d=" M 255 78.548 L 255 76.448 L 247.6 76.448 L 247.5 71.748 L 256 71.648 L 256 69.648 L 245.1 69.748 L 245.1 85.148 L 256.8 85.048 L 256.8 83.048 L 247.6 83.148 L 247.6 78.548 L 255 78.548 Z " fill="rgb(41,46,107)"/><path d=" M 298.6 69.648 L 294.5 76.648 L 294.1 75.948 L 290.4 69.748 L 287.5 69.748 L 293.2 79.048 L 293.2 85.048 L 295.8 85.048 L 295.8 79.148 L 295.8 79.148 L 301.4 69.648 L 298.6 69.648 Z " fill="rgb(41,46,107)"/><path d=" M 311 69.648 C 306.6 69.648 303.1 73.248 303.1 77.648 C 303.1 82.048 306.7 85.548 311.1 85.548 C 315.5 85.548 319.1 81.948 319 77.548 C 319 73.248 315.4 69.648 311 69.648 Z  M 311 83.148 C 308 83.148 305.5 80.648 305.5 77.648 C 305.5 74.648 308 72.148 311 72.048 C 314 72.048 316.5 74.548 316.5 77.548 C 316.5 80.648 314.1 83.148 311 83.148 Z " fill="rgb(41,46,107)"/><path d=" M 347.8 85.048 L 351.4 85.048 L 345.2 78.548 L 351.1 69.648 L 347.8 69.648 L 340.7 80.148 L 340.6 69.748 L 338 69.748 L 338.1 85.148 L 340.7 85.048 L 340.7 83.848 L 343.3 80.248 L 347.8 85.048 Z " fill="rgb(41,46,107)"/><path d=" M 331.4 85.048 L 334.5 85.048 L 330.1 79.148 L 330.6 79.048 C 333.2 78.448 334.1 76.348 334.1 74.448 C 334.1 72.148 332.7 69.748 328.9 69.748 L 322 69.748 L 322.1 85.148 L 324.7 85.148 L 324.7 79.248 L 327.2 79.248 L 331.4 85.048 Z  M 324.6 71.448 L 327.9 71.448 C 329.6 71.448 331.6 71.748 331.6 74.448 C 331.6 77.448 328.9 77.448 328 77.448 L 324.7 77.448 L 324.6 71.448 Z " fill="rgb(41,46,107)"/><path d=" M 276.7 69.648 L 273.9 82.348 L 270.4 69.748 L 267.8 69.748 L 264.4 82.148 L 261.5 69.748 L 259 69.748 L 263.1 85.048 L 265.9 85.048 L 269.1 71.748 L 271.7 82.648 L 272.3 85.048 L 275.1 85.048 L 279.1 69.648 L 276.7 69.648 Z " fill="rgb(41,46,107)"/></g><path d=" M 195.5 77.615 C 195.49 75.132 197.499 73.107 199.983 73.098 C 202.466 73.088 204.49 75.097 204.5 77.58 C 204.51 80.064 202.501 82.088 200.017 82.098 C 197.534 82.107 195.51 80.099 195.5 77.615 Z " fill="rgb(41,46,107)"/><g id="Group"><path d=" M 219.5 1.9 C 219.5 1.4 219.6 1 219.9 0.7 C 220.2 0.4 220.6 0.2 221.2 0.2 L 232.8 0.2 C 233.2 0.2 233.6 0.4 234.1 0.7 C 234.5 1 234.8 1.4 234.8 2 L 234.8 57.6 C 234.8 58.8 234.2 59.4 232.9 59.4 L 221.3 59.4 C 220.1 59.4 219.6 58.8 219.6 57.6 L 219.5 1.9 Z " fill="rgb(41,46,107)"/><path d=" M 311.5 58.4 C 311.2 58 311 57.5 310.7 57 C 310.5 56.5 310.2 56 310.1 55.6 C 306.7 46.6 303.3 37.6 299.9 28.8 C 296.5 19.9 293.1 11 289.7 2 C 289.7 1.9 289.7 1.7 289.6 1.6 C 289.6 1.5 289.5 1.4 289.5 1.3 C 289.5 0.6 290 0.2 291 0.2 L 303.8 0.2 C 304.8 0.2 305.5 0.7 305.9 1.7 L 318.1 37.9 L 329.4 1.7 C 329.8 0.7 330.5 0.2 331.6 0.2 L 344.5 0.2 C 345.1 0.2 345.5 0.3 345.8 0.5 C 346.1 0.7 346.2 1 346.2 1.4 C 346.2 1.6 346.2 1.8 346.2 1.8 L 346.2 1.9 L 339 22.2 L 344.3 37.8 L 357.2 1.6 C 357.6 0.6 358.3 0.1 359.4 0.1 L 371.9 0.1 C 372.5 0.1 372.9 0.2 373.2 0.4 C 373.5 0.6 373.6 0.9 373.6 1.3 C 373.6 1.5 373.6 1.7 373.6 1.7 L 373.6 1.8 C 371.8 6.5 369.9 11.1 368.1 15.8 C 366.2 20.4 364.3 25.1 362.4 29.7 C 360.5 34.3 358.6 39 356.7 43.6 C 354.8 48.3 353 52.9 351.2 57.5 C 351.1 57.8 350.9 58.1 350.5 58.5 C 350.1 58.9 349.7 59 349.1 59 L 349 59 L 339.4 59 C 338.8 59 338.4 58.9 338.1 58.7 C 337.8 58.5 337.6 58.2 337.4 57.8 L 331.1 41.2 C 330.2 43.6 329.3 46 328.4 48.3 C 327.5 50.6 326.6 53 325.8 55.4 C 325.7 55.8 325.5 56.2 325.3 56.6 C 325.1 57 324.9 57.4 324.7 57.8 C 324.5 58.2 324.2 58.5 323.9 58.7 C 323.6 58.9 323.2 59.1 322.8 59.1 L 322.7 59.1 L 313.1 59.1 C 312.4 59.2 311.8 58.9 311.5 58.4 Z " fill="rgb(41,46,107)"/><path d=" M 286.5 45.7 L 259.7 45.7 L 259.7 35.5 L 279.7 35.5 C 280.3 35.5 280.7 35.3 281 35 C 281.3 34.7 281.4 34.3 281.4 33.9 L 281.4 25.3 C 281.4 24.7 281.2 24.3 280.9 24.1 C 280.6 23.9 280.2 23.7 279.6 23.7 L 259.7 23.7 L 259.7 13.8 L 280.4 13.8 L 280.4 13.8 L 282.1 13.8 C 282.7 13.8 283.2 13.6 283.5 13.2 C 283.8 12.8 284 12.4 284 11.9 L 284 2 C 284 1.4 283.8 1 283.5 0.6 C 283.2 0.3 282.7 0.1 282.1 0.1 L 277 0.1 L 277 0.1 L 245.9 0.1 C 245.3 0.1 244.9 0.3 244.6 0.6 C 244.3 0.9 244.1 1.4 244.1 1.9 L 244.1 57.5 C 244.1 58.1 244.3 58.5 244.6 58.8 C 244.9 59.1 245.3 59.2 245.9 59.2 L 274.5 59.2 L 286.1 59.2 L 286.3 59.2 C 287.5 59.2 288.1 58.6 288.1 57.4 L 288.1 57.4 L 288.1 57.4 L 288.1 55.8 L 288.1 47.4 C 288.3 46.3 287.7 45.7 286.5 45.7 Z " fill="rgb(41,46,107)"/><path d=" M 215.9 0.3 C 215.9 0.3 211.5 0.3 210.2 0.4 C 210.2 0.4 210.2 0.4 210.2 0.4 C 205.7 0.6 202.7 1.3 200.8 2.1 C 198.5 3.3 197.6 5.2 197.4 5.9 L 197.4 5.9 C 196.5 8.4 195.7 10.8 194.8 13.3 C 193.9 16.2 192.9 19 192 21.9 C 191.1 24.8 190.1 27.6 189.2 30.5 C 188.3 33.3 187.3 36.1 186.3 38.9 C 185.3 36.1 184.3 33.3 183.4 30.5 C 182.5 27.6 181.5 24.8 180.6 21.9 C 179.7 19 178.8 16.2 177.8 13.3 C 177 10.8 176.1 8.4 175.2 5.9 L 175.2 5.9 C 174.9 5.2 174.1 3.3 171.8 2.1 C 170 1.3 167.4 0.7 163.5 0.4 C 163.5 0.4 163.5 0.4 163.5 0.4 C 163.3 0.4 163 0.4 162.7 0.4 C 161.9 0.4 161.1 0.3 160.2 0.3 C 158.4 0.3 156.7 0.3 156.7 0.3 L 162.6 14 L 162.6 14 L 165.3 20.7 L 165.3 20.7 L 178.8 55.8 C 178.9 56.2 179.1 56.5 179.3 57 C 179.5 57.4 179.7 57.8 179.9 58.2 C 180.1 58.6 180.4 58.9 180.7 59.1 C 181 59.4 181.3 59.5 181.7 59.5 L 186.3 59.5 L 186.4 59.5 L 191 59.5 C 191.4 59.5 191.7 59.4 192 59.1 C 192.3 58.8 192.6 58.5 192.8 58.2 C 193 57.8 193.2 57.4 193.4 57 C 193.6 56.6 193.7 56.2 193.9 55.8 L 207.4 20.7 L 207.4 20.7 L 210.7 12.5 L 215.9 0.6 C 216 0.5 216 0.4 216 0.4 C 216 0.4 216 0.4 216 0.4 L 215.9 0.3 Z " fill="rgb(41,46,107)"/></g><g id="Group"><g id="Group"><g id="Group"><path d=" M 0 0.1 L 0 12.9 L 15.9 12.9 L 15.9 59.2 L 30.5 59.2 L 30.5 12.9 L 46.4 12.9 L 46.5 0 L 0 0.1 Z " fill="rgb(222,33,41)"/></g><g id="Group"><g id="Group"><path d=" M 153 14.5 C 152.6 12.9 152 11.4 151.3 10 C 150.6 8.6 149.6 7.3 148.6 6 C 147.5 4.8 146.3 3.7 145 2.9 C 143.7 2 142.2 1.3 140.6 0.8 C 139 0.3 137.3 0.1 135.5 0.1 L 108.3 0.1 L 108.3 59.2 L 122.9 59.2 L 122.9 38.2 L 135.7 38.2 C 138.3 38.2 140.8 37.6 143 36.5 L 143 36.5 C 145.2 35.4 147.1 34 148.7 32.2 C 150.3 30.4 151.5 28.4 152.4 26.2 C 153.3 23.9 153.7 21.6 153.7 19.2 C 153.6 17.6 153.4 16 153 14.5 Z  M 122.9 11.8 L 132 11.8 C 133.1 11.8 134 12 134.9 12.5 C 135.7 12.9 136.5 13.5 137 14.2 C 137.6 14.9 138 15.7 138.3 16.5 C 138.6 17.4 138.8 18.2 138.8 19.1 C 138.8 20 138.6 20.9 138.3 21.8 C 138 22.7 137.6 23.4 137 24.1 C 136.4 24.8 135.7 25.3 134.9 25.8 C 134 26.2 133.1 26.4 132 26.4 L 122.9 26.4 L 122.9 11.8 Z " fill="rgb(222,33,41)"/></g></g><g id="Group"><g id="Group"><path d=" M 80.7 37.6 C 79.2 41.6 77 45.2 74.8 48.3 L 74.8 48.3 C 74.8 48.3 74.8 48.4 74.7 48.4 C 74.6 48.6 74.4 48.8 74.3 48.9 C 74.3 48.9 74.2 49 74.2 49 C 74.1 49.2 73.9 49.4 73.8 49.6 C 73.8 49.6 73.7 49.7 73.7 49.7 C 73.6 49.9 73.4 50.1 73.3 50.3 L 73.3 50.3 C 70.6 53.8 68 56.4 66.8 57.5 C 68.6 58.1 70.4 58.5 72.4 58.7 C 74.9 56.2 76.7 52.2 78 48.2 L 78 48.2 C 79.5 44.1 80.3 39.9 80.7 37.6 Z " fill="rgb(222,33,41)"/></g><g id="Group"><g id="Group"><path d=" M 79.5 28.3 L 81.3 28.3 L 79.4 27.8 L 79.4 27.6 L 81.5 26.6 L 79.2 27.1 L 78.8 26.7 L 80 24.6 L 78.1 26.3 L 77.6 26.2 L 77 23.6 L 76.7 26.3 L 76.3 26.4 L 74.5 24.8 L 75.7 26.8 L 75.5 27.1 L 73.8 27 C 73.7 26.4 73.6 25.6 73.2 24.9 C 72.4 23.5 72.8 21.4 72.8 20.7 C 72.8 20 72.2 19.7 72.2 19.7 L 72.4 18.8 L 73.2 18.4 L 73.2 17.2 C 72.9 17.1 72.6 17 72.3 17 C 73 16.4 72.8 14.9 72.8 14.9 C 72.6 14.9 72.5 14.9 72.4 15 C 72.7 14.5 72.8 14.1 72.8 14.1 C 71 14.3 70.6 15.1 70.6 15.3 C 70.6 15.4 70.6 15.4 70.5 15.5 L 70.5 15.5 L 70.5 15.5 C 70.5 15.5 70.5 15.5 70.5 15.5 C 70.5 15.5 70.5 15.6 70.5 15.6 C 70.4 16.1 70.6 16.5 70.8 16.7 C 70.8 16.8 70.8 16.8 70.9 16.9 C 70.3 17 69.9 17.1 69.9 17.1 L 69.9 18.2 L 70.6 18.6 L 70.8 19.4 L 70.4 19.4 L 70.4 21.5 L 70.9 21.5 L 70.9 22.9 L 71.4 22.9 C 71.4 22.9 71.5 24.9 71.5 26.2 C 71.5 27.5 72 28.3 72 28.3 C 70.1 29.5 70.9 31.8 70.9 31.8 L 72.5 34 L 72 35.7 L 72.6 36.4 L 72 41.5 L 72.8 42.1 L 72.7 45.7 L 73 46.2 L 73 46.8 C 75.4 44.8 77.8 42.2 79.5 38.7 C 80.1 37.7 80.7 36.5 81.2 35.6 C 81.2 35.5 81.1 35.4 81.1 35.2 C 81.1 35 81 34.9 81 34.8 C 80.7 34.1 80.2 33 80 32.7 C 80 32.7 79.9 32.6 79.9 32.6 L 79.9 32.6 C 79.9 32.6 79.8 32.5 79.8 32.5 C 79.5 32 79.6 31.3 79.6 31.3 C 79.8 31.1 79.7 30.7 79.7 30.7 C 79.4 29.8 79.5 28.9 79.5 28.9 L 79.5 28.3 Z  M 75.4 28.8 C 75.4 28.9 75.3 29.5 75.3 29.5 L 75.4 29.8 L 75.1 30.3 C 75.1 30.3 74.8 29.5 74.7 28.8 C 74.7 28.7 74.7 28.6 74.6 28.6 L 75.4 28.6 C 75.4 28.5 75.4 28.7 75.4 28.8 Z  M 75.2 27.7 L 75.1 28.1 L 74.5 28.3 C 74.2 28 73.8 27.9 73.8 27.9 C 73.8 27.9 73.8 27.6 73.8 27.1 L 75.2 27.7 Z " fill="rgb(222,33,41)"/></g></g><g id="Group"><g id="Group"><path d=" M 96.7 8.3 C 91.4 2.8 84.7 0 76.8 0 C 68.4 0 61.4 2.7 56 8.2 C 50.6 13.6 47.8 20.7 47.8 29.1 C 47.8 37.6 50.4 44.7 55.5 50.3 C 56.3 51.1 57 51.9 57.9 52.6 C 64 52.4 68.6 50.2 71.9 47.8 C 69.3 46.9 67.2 45.2 65.5 42.6 C 63.3 39.2 62.2 34.8 62.2 29.6 C 62.2 24.5 63.3 20.2 65.5 16.7 C 68 12.7 71.4 10.7 76 10.7 C 80.4 10.7 83.8 12.3 86.3 15.6 C 88.8 18.9 90.1 23.7 90.1 29.8 C 90.1 35.6 88.8 40.3 86.2 43.7 C 85 45.1 83.6 46.3 82 47.1 C 82 46.5 81.9 45.9 81.8 45.3 C 81.7 44.8 81.9 44.6 82.3 44.4 C 82.8 44.2 83.2 43.9 83.4 43.3 C 83.7 42.5 84 41.6 84.8 41 C 85.1 40.7 85.4 40.1 85.3 39.7 C 85.3 39.2 85.4 38.9 85.6 38.5 C 85.8 38.1 85.8 37.9 85.3 37.7 C 84.8 37.5 84.3 37.3 83.8 37 C 83.5 36.8 83.4 36.9 83.2 37.2 C 83 37.5 82.8 37.8 82.6 38.1 C 81.8 37.6 81.5 37.4 81.3 37 C 80.8 44.1 76.3 59 76.3 59 C 84.7 59 91.7 56 96.9 50.2 C 102 44.6 104.6 37.4 104.6 28.9 C 104.7 20.8 102 13.8 96.7 8.3 Z  M 82.2 39.3 C 82.6 38.7 83.1 38.1 83.5 37.5 C 83.6 37.3 83.7 37.3 83.9 37.4 C 84.4 37.6 84.8 37.9 85.3 38.1 C 85.2 38.3 85.2 38.5 85.1 38.6 C 84.7 38.5 83.9 38.7 83.7 39.4 C 83.5 40.1 83.6 40.7 83.7 41 C 83.4 41.7 83 42.3 82.6 42.9 C 82.6 42.9 82.5 42.9 82.5 42.9 C 82.4 42.8 82.3 42.6 82.3 42.5 C 82.2 41.6 82.2 40.7 82.1 39.7 C 82.1 39.6 82.1 39.4 82.2 39.3 Z " fill="rgb(222,33,41)"/></g></g></g></g></g></g></svg>